<?xml version="1.0" encoding="UTF-8" standalone="no"?>
<!DOCTYPE svg PUBLIC "-//W3C//DTD SVG 1.1//EN" "http://www.w3.org/Graphics/SVG/1.1/DTD/svg11.dtd">
<svg width="100%" height="100%" viewBox="0 0 96 96" version="1.1" xmlns="http://www.w3.org/2000/svg" xmlns:xlink="http://www.w3.org/1999/xlink" xml:space="preserve" xmlns:serif="http://www.serif.com/" style="fill-rule:evenodd;clip-rule:evenodd;stroke-miterlimit:2;">
    <g transform="matrix(3.89864,0,0,3.89864,-0.748538,63.3918)">
        <g id="path1">
            <g>
                <g>
                    <path d="M2.568,0.12C2.072,0.12 1.646,0.056 1.29,-0.072C0.934,-0.2 0.568,-0.404 0.192,-0.684L0.912,-2.304C1.12,-2.176 1.348,-2.068 1.596,-1.98C1.844,-1.892 2.072,-1.848 2.28,-1.848C2.616,-1.848 2.88,-1.942 3.072,-2.13C3.264,-2.318 3.36,-2.64 3.36,-3.096L3.36,-8.016L5.64,-8.016L5.64,-3.216C5.64,-2.16 5.392,-1.34 4.896,-0.756C4.4,-0.172 3.624,0.12 2.568,0.12Z" style="fill:rgb(21,119,213);fill-rule:nonzero;stroke:rgb(21,119,213);stroke-width:0.6px;"/>
                    <path d="M6.984,0L6.984,-8.016L10.584,-8.016L11.808,-3.336L13.032,-8.016L16.632,-8.016L16.632,0L14.352,0L14.352,-5.736L12.78,0L10.836,0L9.264,-5.736L9.264,0L6.984,0Z" style="fill:rgb(21,119,213);fill-rule:nonzero;stroke:rgb(21,119,213);stroke-width:0.6px;"/>
                    <path d="M17.976,0L17.976,-8.016L21.648,-8.016C22.728,-8.016 23.526,-7.772 24.042,-7.284C24.558,-6.796 24.816,-6.132 24.816,-5.292C24.816,-4.452 24.558,-3.788 24.042,-3.3C23.526,-2.812 22.728,-2.568 21.648,-2.568L20.256,-2.568L20.256,0L17.976,0ZM20.256,-4.344L21.288,-4.344C21.68,-4.344 21.982,-4.418 22.194,-4.566C22.406,-4.714 22.512,-4.956 22.512,-5.292C22.512,-5.628 22.406,-5.87 22.194,-6.018C21.982,-6.166 21.68,-6.24 21.288,-6.24L20.256,-6.24L20.256,-4.344Z" style="fill:rgb(21,119,213);fill-rule:nonzero;stroke:rgb(21,119,213);stroke-width:0.6px;"/>
                </g>
            </g>
        </g>
    </g>
</svg>
