<?xml version="1.0" encoding="UTF-8" standalone="no"?>
<!DOCTYPE svg PUBLIC "-//W3C//DTD SVG 1.1//EN" "http://www.w3.org/Graphics/SVG/1.1/DTD/svg11.dtd">
<svg width="100%" height="100%" viewBox="0 0 471 102" version="1.1" xmlns="http://www.w3.org/2000/svg" xmlns:xlink="http://www.w3.org/1999/xlink" xml:space="preserve" xmlns:serif="http://www.serif.com/" style="fill-rule:evenodd;clip-rule:evenodd;stroke-miterlimit:2;">
    <g id="path1" transform="matrix(3.77953,0,0,3.77953,-145.81,-506.059)">
        <g transform="matrix(0.264583,0,-0.0378457,0.264583,40.5946,133.51)">
            <path d="M17.267,22.202C17.557,22.202 17.851,22.328 18.072,22.547C18.293,22.766 18.42,23.057 18.42,23.344L18.42,65.562C18.42,70.488 14.725,74.146 9.749,74.146L3.987,74.146C3.697,74.146 3.403,74.02 3.182,73.801C2.961,73.582 2.834,73.292 2.834,73.005L2.834,23.061C2.834,22.568 3.203,22.202 3.701,22.202L17.267,22.202ZM17.267,1.452C17.557,1.452 17.851,1.578 18.072,1.797C18.293,2.016 18.42,2.306 18.42,2.593L18.42,18.343C18.42,18.835 18.051,19.201 17.553,19.201L3.987,19.201C3.697,19.201 3.403,19.075 3.182,18.856C2.961,18.637 2.834,18.347 2.834,18.06L2.834,10.036C2.834,5.11 6.529,1.452 11.505,1.452L17.267,1.452Z" style="fill:rgb(21,119,213);"/>
        </g>
        <g transform="matrix(0.264583,0,-0.0378457,0.264583,111.251,133.51)">
            <path d="M17.267,22.202C17.557,22.202 17.851,22.328 18.072,22.547C18.293,22.766 18.42,23.057 18.42,23.344L18.42,65.562C18.42,70.488 14.725,74.146 9.749,74.146L3.987,74.146C3.697,74.146 3.403,74.02 3.182,73.801C2.961,73.582 2.834,73.292 2.834,73.005L2.834,23.061C2.834,22.568 3.203,22.202 3.701,22.202L17.267,22.202ZM17.267,1.452C17.557,1.452 17.851,1.578 18.072,1.797C18.293,2.016 18.42,2.306 18.42,2.593L18.42,18.343C18.42,18.835 18.051,19.201 17.553,19.201L3.987,19.201C3.697,19.201 3.403,19.075 3.182,18.856C2.961,18.637 2.834,18.347 2.834,18.06L2.834,10.036C2.834,5.11 6.529,1.452 11.505,1.452L17.267,1.452Z" style="fill:rgb(21,119,213);"/>
        </g>
        <g transform="matrix(0.264583,0,-0.0529641,0.370277,67.6363,125.673)">
            <path d="M-9.943,65.989L-9.943,22.816C-9.943,22.464 -9.574,22.202 -9.076,22.202L-5.889,22.202C-2.99,22.202 -0.053,23.101 2.159,24.666C4.372,26.232 5.643,28.309 5.643,30.359L5.643,36.214C5.643,36.419 5.77,36.626 5.992,36.783C6.213,36.939 6.507,37.029 6.796,37.029L40.975,37.029C41.265,37.029 41.559,37.119 41.78,37.276C42.001,37.432 42.128,37.64 42.128,37.845L42.128,42.033C42.128,45.553 38.433,48.167 33.457,48.167L6.51,48.167C6.013,48.167 5.643,48.428 5.643,48.78L5.643,62.193C5.643,62.398 5.77,62.606 5.992,62.762C6.213,62.919 6.507,63.009 6.796,63.009L40.975,63.009C41.265,63.009 41.559,63.099 41.78,63.255C42.001,63.412 42.128,63.619 42.128,63.824L42.128,68.012C42.128,71.532 38.433,74.146 33.457,74.146L1.589,74.146C-1.31,74.146 -4.247,73.247 -6.459,71.682C-8.672,70.117 -9.943,68.04 -9.943,65.989Z" style="fill:rgb(21,119,213);"/>
        </g>
        <g transform="matrix(0.264583,0,-0.0378457,0.264583,47.0023,133.51)">
            <path d="M3.987,74.146C3.697,74.146 3.403,74.02 3.182,73.801C2.961,73.582 2.834,73.292 2.834,73.005L2.834,30.786C2.834,25.86 6.529,22.202 11.505,22.202L43.508,22.202C46.407,22.202 49.344,23.46 51.556,25.651C53.769,27.841 55.04,30.748 55.04,33.618L55.04,65.562C55.04,70.488 51.344,74.146 46.369,74.146L40.607,74.146C40.317,74.146 40.023,74.02 39.802,73.801C39.581,73.582 39.454,73.292 39.454,73.005L39.454,38.93C39.454,38.643 39.326,38.352 39.105,38.133C38.884,37.914 38.59,37.789 38.3,37.789L19.287,37.789C18.79,37.789 18.42,38.154 18.42,38.647L18.42,65.562C18.42,70.488 14.725,74.146 9.749,74.146L3.987,74.146Z" style="fill:rgb(21,119,213);"/>
        </g>
        <g transform="matrix(0.264583,0,0.0378457,-0.264583,145.974,159.002)">
            <path d="M18.42,38.93C18.42,38.643 18.547,38.352 18.769,38.133C18.99,37.914 19.284,37.789 19.573,37.789L38.586,37.789C39.084,37.789 39.454,38.154 39.454,38.647L39.454,73.638C39.454,74.131 39.823,74.496 40.321,74.496L43.508,74.496C46.407,74.496 49.344,73.238 51.556,71.048C53.769,68.857 55.04,65.95 55.04,63.08L55.04,10.065C55.04,5.139 51.344,1.481 46.369,1.481L2.834,1.481L2.834,8.483C2.834,13.409 6.529,17.068 11.505,17.068L38.586,17.068C39.084,17.068 39.454,17.433 39.454,17.926L39.454,21.061C39.454,21.348 39.326,21.638 39.105,21.857C38.884,22.076 38.59,22.202 38.3,22.202L14.366,22.202C11.467,22.202 8.53,23.46 6.318,25.651C4.105,27.841 2.834,30.748 2.834,33.618L2.834,73.288C2.834,73.78 3.203,74.146 3.701,74.146L6.888,74.146C9.787,74.146 12.724,72.888 14.936,70.697C17.149,68.507 18.42,65.6 18.42,62.73L18.42,38.93Z" style="fill:rgb(21,119,213);"/>
        </g>
        <g transform="matrix(0.0378457,-0.264583,0.264583,1.6201e-17,71.1579,153.878)">
            <path d="M2.834,33.734C2.834,30.835 4.092,27.899 6.282,25.686C8.473,23.473 11.38,22.202 14.25,22.202L46.456,22.202C51.382,22.202 55.04,25.898 55.04,30.874L55.04,62.614C55.04,65.513 53.782,68.45 51.591,70.662C49.401,72.875 46.494,74.146 43.624,74.146L29.728,74.146C24.802,74.146 21.144,70.451 21.144,65.475L21.144,38.656C21.144,38.158 20.778,37.789 20.285,37.789L19.562,37.789C19.275,37.789 18.984,37.916 18.765,38.137C18.546,38.358 18.42,38.652 18.42,38.942L18.42,62.614C18.42,65.513 17.162,68.45 14.972,70.662C12.781,72.875 9.874,74.146 7.004,74.146L3.692,74.146C3.2,74.146 2.834,73.777 2.834,73.279L2.834,33.734ZM38.312,58.56C38.599,58.56 38.89,58.433 39.109,58.211C39.328,57.99 39.454,57.696 39.454,57.406L39.454,38.656C39.454,38.158 39.088,37.789 38.595,37.789L37.872,37.789C37.585,37.789 37.294,37.916 37.075,38.137C36.856,38.358 36.73,38.652 36.73,38.942L36.73,57.693C36.73,58.19 37.096,58.56 37.589,58.56L38.312,58.56Z" style="fill:rgb(21,119,213);"/>
        </g>
        <g transform="matrix(0.0378457,-0.264583,0.264583,1.6201e-17,109.527,153.878)">
            <path d="M2.834,33.734C2.834,30.835 4.092,27.899 6.282,25.686C8.473,23.473 11.38,22.202 14.25,22.202L46.456,22.202C51.382,22.202 55.04,25.898 55.04,30.874L55.04,62.614C55.04,65.513 53.782,68.45 51.591,70.662C49.401,72.875 46.494,74.146 43.624,74.146L29.728,74.146C24.802,74.146 21.144,70.451 21.144,65.475L21.144,38.656C21.144,38.158 20.778,37.789 20.285,37.789L19.562,37.789C19.275,37.789 18.984,37.916 18.765,38.137C18.546,38.358 18.42,38.652 18.42,38.942L18.42,62.614C18.42,65.513 17.162,68.45 14.972,70.662C12.781,72.875 9.874,74.146 7.004,74.146L3.692,74.146C3.2,74.146 2.834,73.777 2.834,73.279L2.834,33.734ZM38.312,58.56C38.599,58.56 38.89,58.433 39.109,58.211C39.328,57.99 39.454,57.696 39.454,57.406L39.454,38.656C39.454,38.158 39.088,37.789 38.595,37.789L37.872,37.789C37.585,37.789 37.075,38.137 37.075,38.137C37.075,38.137 36.73,38.652 36.73,38.942L36.73,57.693C36.73,58.19 37.096,58.56 37.589,58.56L38.312,58.56Z" style="fill:rgb(21,119,213);"/>
        </g>
        <g transform="matrix(0.0378457,-0.264583,0.264583,1.6201e-17,88.5712,144.189)">
            <path d="M-33.786,23.355C-33.786,23.065 -33.66,22.772 -33.441,22.55C-33.222,22.329 -32.931,22.202 -32.644,22.202L9.836,22.202C14.762,22.202 18.42,25.898 18.42,30.874L18.42,72.993C18.42,73.283 18.294,73.576 18.075,73.798C17.856,74.019 17.566,74.146 17.279,74.146L11.418,74.146C6.492,74.146 2.834,70.451 2.834,65.475L2.834,38.656C2.834,38.158 2.468,37.789 1.975,37.789L-25.202,37.789C-30.128,37.789 -33.786,34.093 -33.786,29.117L-33.786,23.355Z" style="fill:rgb(21,119,213);"/>
        </g>
        <g transform="matrix(0.0378457,-0.264583,0.264583,1.6201e-17,126.941,144.189)">
            <path d="M-33.786,23.355C-33.786,23.065 -33.66,22.772 -33.441,22.55C-33.222,22.329 -32.931,22.202 -32.644,22.202L9.836,22.202C14.762,22.202 18.42,25.898 18.42,30.874L18.42,72.993C18.42,73.283 18.294,73.576 18.075,73.798C17.856,74.019 17.566,74.146 17.279,74.146L11.418,74.146C6.492,74.146 2.834,70.451 2.834,65.475L2.834,38.656C2.834,38.158 2.468,37.789 1.975,37.789L-25.202,37.789C-30.128,37.789 -33.786,34.093 -33.786,29.117L-33.786,23.355Z" style="fill:rgb(21,119,213);"/>
        </g>
        <g transform="matrix(0.65671,0,0,0.65671,128.998,160.399)">
            <g>
                <path d="M2.568,0.12C2.072,0.12 1.646,0.056 1.29,-0.072C0.934,-0.2 0.568,-0.404 0.192,-0.684L0.912,-2.304C1.12,-2.176 1.348,-2.068 1.596,-1.98C1.844,-1.892 2.072,-1.848 2.28,-1.848C2.616,-1.848 2.88,-1.942 3.072,-2.13C3.264,-2.318 3.36,-2.64 3.36,-3.096L3.36,-8.016L5.64,-8.016L5.64,-3.216C5.64,-2.16 5.392,-1.34 4.896,-0.756C4.4,-0.172 3.624,0.12 2.568,0.12Z" style="fill:rgb(21,119,213);fill-rule:nonzero;stroke:rgb(21,119,213);stroke-width:0.6px;"/>
                <path d="M6.984,0L6.984,-8.016L10.584,-8.016L11.808,-3.336L13.032,-8.016L16.632,-8.016L16.632,0L14.352,0L14.352,-5.736L12.78,0L10.836,0L9.264,-5.736L9.264,0L6.984,0Z" style="fill:rgb(21,119,213);fill-rule:nonzero;stroke:rgb(21,119,213);stroke-width:0.6px;"/>
                <path d="M17.976,0L17.976,-8.016L21.648,-8.016C22.728,-8.016 23.526,-7.772 24.042,-7.284C24.558,-6.796 24.816,-6.132 24.816,-5.292C24.816,-4.452 24.558,-3.788 24.042,-3.3C23.526,-2.812 22.728,-2.568 21.648,-2.568L20.256,-2.568L20.256,0L17.976,0ZM20.256,-4.344L21.288,-4.344C21.68,-4.344 21.982,-4.418 22.194,-4.566C22.406,-4.714 22.512,-4.956 22.512,-5.292C22.512,-5.628 22.406,-5.87 22.194,-6.018C21.982,-6.166 21.68,-6.24 21.288,-6.24L20.256,-6.24L20.256,-4.344Z" style="fill:rgb(21,119,213);fill-rule:nonzero;stroke:rgb(21,119,213);stroke-width:0.6px;"/>
            </g>
        </g>
    </g>
</svg>
